<?xml version="1.0" encoding="UTF-8" standalone="no"?><!DOCTYPE svg PUBLIC "-//W3C//DTD SVG 1.1//EN" "http://www.w3.org/Graphics/SVG/1.1/DTD/svg11.dtd"><svg width="100%" height="100%" viewBox="0 0 2839 2132" version="1.1" xmlns="http://www.w3.org/2000/svg" xmlns:xlink="http://www.w3.org/1999/xlink" xml:space="preserve" xmlns:serif="http://www.serif.com/" style="fill-rule:evenodd;clip-rule:evenodd;stroke-miterlimit:10;"><g opacity="0.05"><g><clipPath id="_clip1"><rect x="38.658" y="67.164" width="993.925" height="296.45" clip-rule="nonzero"/></clipPath><g clip-path="url(#_clip1)"><path d="M41.874,73.722l109.696,133.333l109.704,-133.333l109.713,133.333l109.721,-133.333l109.725,133.333l109.725,-133.333l109.729,133.333l109.742,-133.333l109.745,133.333" style="fill:none;fill-rule:nonzero;stroke:#9ca8c8;stroke-width:8.33px;"/><path d="M41.874,148.722l109.696,133.333l109.704,-133.333l109.713,133.333l109.721,-133.333l109.725,133.333l109.725,-133.333l109.729,133.333l109.742,-133.333l109.745,133.333" style="fill:none;fill-rule:nonzero;stroke:#9ca8c8;stroke-width:8.33px;"/><path d="M41.874,223.722l109.696,133.333l109.704,-133.333l109.713,133.333l109.721,-133.333l109.725,133.333l109.725,-133.333l109.729,133.333l109.742,-133.333l109.745,133.333" style="fill:none;fill-rule:nonzero;stroke:#9ca8c8;stroke-width:8.33px;"/></g></g></g><g opacity="0.05"><path d="M2398.15,1375.19c-0,21.871 -17.729,39.6 -39.6,39.6c-21.867,0 -39.596,-17.729 -39.596,-39.6c-0,-21.866 17.729,-39.595 39.596,-39.595c21.871,-0 39.6,17.729 39.6,39.595" style="fill:#9ca8c8;fill-rule:nonzero;"/><path d="M2545.04,1375.19c0,21.871 -17.729,39.6 -39.6,39.6c-21.867,0 -39.596,-17.729 -39.596,-39.6c0,-21.866 17.729,-39.595 39.596,-39.595c21.871,-0 39.6,17.729 39.6,39.595" style="fill:#9ca8c8;fill-rule:nonzero;"/><path d="M2691.93,1375.19c-0,21.871 -17.725,39.6 -39.596,39.6c-21.867,0 -39.596,-17.729 -39.596,-39.6c-0,-21.866 17.729,-39.595 39.596,-39.595c21.871,-0 39.596,17.729 39.596,39.595" style="fill:#9ca8c8;fill-rule:nonzero;"/><path d="M2838.82,1375.19c-0,21.871 -17.725,39.6 -39.596,39.6c-21.867,0 -39.596,-17.729 -39.596,-39.6c0,-21.866 17.729,-39.595 39.596,-39.595c21.871,-0 39.596,17.729 39.596,39.595" style="fill:#9ca8c8;fill-rule:nonzero;"/><path d="M2398.15,1514.42c-0,21.867 -17.729,39.596 -39.6,39.596c-21.867,-0 -39.596,-17.729 -39.596,-39.596c-0,-21.871 17.729,-39.6 39.596,-39.6c21.871,0 39.6,17.729 39.6,39.6" style="fill:#9ca8c8;fill-rule:nonzero;"/><path d="M2545.04,1514.42c0,21.867 -17.729,39.596 -39.6,39.596c-21.867,-0 -39.596,-17.729 -39.596,-39.596c0,-21.871 17.729,-39.6 39.596,-39.6c21.871,0 39.6,17.729 39.6,39.6" style="fill:#9ca8c8;fill-rule:nonzero;"/><path d="M2691.93,1514.42c-0,21.867 -17.725,39.596 -39.596,39.596c-21.867,-0 -39.596,-17.729 -39.596,-39.596c-0,-21.871 17.729,-39.6 39.596,-39.6c21.871,0 39.596,17.729 39.596,39.6" style="fill:#9ca8c8;fill-rule:nonzero;"/><path d="M2838.82,1514.42c-0,21.867 -17.725,39.596 -39.596,39.596c-21.867,-0 -39.596,-17.729 -39.596,-39.596c0,-21.871 17.729,-39.6 39.596,-39.6c21.871,0 39.596,17.729 39.596,39.6" style="fill:#9ca8c8;fill-rule:nonzero;"/><path d="M2398.15,1653.65c-0,21.871 -17.729,39.6 -39.6,39.6c-21.867,0 -39.596,-17.729 -39.596,-39.6c-0,-21.867 17.729,-39.596 39.596,-39.596c21.871,0 39.6,17.729 39.6,39.596" style="fill:#9ca8c8;fill-rule:nonzero;"/><path d="M2545.04,1653.65c0,21.871 -17.729,39.6 -39.6,39.6c-21.867,0 -39.596,-17.729 -39.596,-39.6c0,-21.867 17.729,-39.596 39.596,-39.596c21.871,0 39.6,17.729 39.6,39.596" style="fill:#9ca8c8;fill-rule:nonzero;"/><path d="M2691.93,1653.65c-0,21.871 -17.725,39.6 -39.596,39.6c-21.867,0 -39.596,-17.729 -39.596,-39.6c-0,-21.867 17.729,-39.596 39.596,-39.596c21.871,0 39.596,17.729 39.596,39.596" style="fill:#9ca8c8;fill-rule:nonzero;"/><path d="M2838.82,1653.65c-0,21.871 -17.725,39.6 -39.596,39.6c-21.867,0 -39.596,-17.729 -39.596,-39.6c0,-21.867 17.729,-39.596 39.596,-39.596c21.871,0 39.596,17.729 39.596,39.596" style="fill:#9ca8c8;fill-rule:nonzero;"/><path d="M2398.15,1792.88c-0,21.866 -17.729,39.595 -39.6,39.595c-21.867,0 -39.596,-17.729 -39.596,-39.595c-0,-21.871 17.729,-39.6 39.596,-39.6c21.871,-0 39.6,17.729 39.6,39.6" style="fill:#9ca8c8;fill-rule:nonzero;"/><path d="M2545.04,1792.88c0,21.866 -17.729,39.595 -39.6,39.595c-21.867,0 -39.596,-17.729 -39.596,-39.595c0,-21.871 17.729,-39.6 39.596,-39.6c21.871,-0 39.6,17.729 39.6,39.6" style="fill:#9ca8c8;fill-rule:nonzero;"/><path d="M2691.93,1792.88c-0,21.866 -17.725,39.595 -39.596,39.595c-21.867,0 -39.596,-17.729 -39.596,-39.595c-0,-21.871 17.729,-39.6 39.596,-39.6c21.871,-0 39.596,17.729 39.596,39.6" style="fill:#9ca8c8;fill-rule:nonzero;"/><path d="M2838.82,1792.88c-0,21.866 -17.725,39.595 -39.596,39.595c-21.867,0 -39.596,-17.729 -39.596,-39.595c0,-21.871 17.729,-39.6 39.596,-39.6c21.871,-0 39.596,17.729 39.596,39.6" style="fill:#9ca8c8;fill-rule:nonzero;"/></g><rect x="1323.44" y="787.889" width="153.746" height="150" style="fill:#8e8e8e;"/><path d="M1931.25,1012.89l73.125,-0l-174.375,1083.75l-76.875,0l178.125,-1083.75Z" style="fill:#5b5b5b;fill-rule:nonzero;"/><path d="M2428.12,1012.89l-73.125,-0l174.375,1083.75l76.875,0l-178.125,-1083.75Z" style="fill:#5b5b5b;fill-rule:nonzero;"/><path d="M313.123,1022.26l-163.121,1061.25l69.371,-0l172.5,-1053.75l-78.75,-7.5Z" style="fill:#727272;fill-rule:nonzero;"/><path d="M750,1018.51l75,1.875l172.496,1065l-75,0l-172.496,-1066.88Z" style="fill:#727272;fill-rule:nonzero;"/><path d="M1882.55,799.139l-964.166,-0c-18.525,-0 -33.542,-15.017 -33.542,-33.542l0,-574.167c0,-18.525 15.017,-33.541 33.542,-33.541l964.166,-0c18.521,-0 33.542,15.016 33.542,33.541l0,574.167c0,18.525 -15.021,33.542 -33.542,33.542" style="fill:#adadad;fill-rule:nonzero;"/><path d="M1889.64,729.764l-978.338,0c-3.217,0 -5.829,-2.612 -5.829,-5.833l-0,-538.959c-0,-3.22 2.612,-5.833 5.829,-5.833l978.338,0c3.216,0 5.829,2.613 5.829,5.833l-0,538.959c-0,3.221 -2.613,5.833 -5.829,5.833" style="fill:#2b2a2a;fill-rule:nonzero;"/><path d="M2466.56,1035.39l-2188.12,-0c-11.912,-0 -21.566,-9.655 -21.566,-21.563l-0,-31.875c-0,-11.908 9.654,-21.562 21.566,-21.562l2188.12,-0c11.908,-0 21.563,9.654 21.563,21.562l-0,31.875c-0,11.908 -9.655,21.563 -21.563,21.563" style="fill:#727272;fill-rule:nonzero;"/><path d="M874.687,1035.39l-596.25,-0c-11.908,-0 -21.563,-9.655 -21.563,-21.563l0,-31.875c0,-11.908 9.655,-21.562 21.563,-21.562l596.25,-0c11.908,-0 21.562,9.654 21.562,21.562l0,31.875c0,11.908 -9.654,21.563 -21.562,21.563" style="fill:#5b5b5b;fill-rule:nonzero;"/><rect x="1113.75" y="934.139" width="580.625" height="40" style="fill:#262323;"/><path d="M476.876,735.39c-2.946,-13.896 -23.025,-117.467 48.746,-207.5c74.992,-94.063 186.979,-93.988 200,-93.75c1.121,26.491 1.154,107.691 -53.746,187.5c-59.604,86.641 -144.475,114.262 -168.75,121.25c-8.754,-2.5 -17.5,-5 -26.25,-7.5" style="fill:#1ac48b;fill-rule:nonzero;"/><path d="M491.915,746.6c1.979,-9.338 15.475,-78.942 -32.758,-139.446c-50.396,-63.213 -125.654,-63.159 -134.404,-63c-0.754,17.804 -0.775,72.371 36.121,126.004c40.05,58.225 97.087,76.787 113.404,81.479c5.879,-1.679 11.758,-3.358 17.637,-5.037" style="fill:#11a831;fill-rule:nonzero;"/><path d="M628.125,801.639l-280,0c-5.521,0 -10.004,-4.479 -10.004,-10l0,-56.25c0,-5.525 4.483,-10 10.004,-10l280,0c5.521,0 9.996,4.475 9.996,10l0,56.25c0,5.521 -4.475,10 -9.996,10" style="fill:#a0743a;fill-rule:nonzero;"/><path d="M957.499,924.973l0,-70.417c16.642,4.604 28.75,18.621 28.75,35.209c0,16.587 -12.108,30.604 -28.75,35.208m48.125,-35.208c0,-26.346 -20.679,-48.305 -48.125,-53.3l0,-27.325c0,-10.359 -8.395,-18.75 -18.75,-18.75l-110,-0c-10.358,-0 -18.75,8.391 -18.75,18.75l0,133.125c0,10.354 8.392,18.75 18.75,18.75l110,-0c10.08,-0 18.234,-7.971 18.667,-17.938c27.488,-4.971 48.208,-26.942 48.208,-53.312" style="fill:#ef6262;fill-rule:nonzero;"/><g opacity="0.5"><clipPath id="_clip2"><rect x="520.416" y="476.43" width="161.667" height="214.167" clip-rule="nonzero"/></clipPath><g clip-path="url(#_clip2)"><path d="M522.498,688.515c9.021,-28.817 25.458,-69.775 56.25,-112.5c35.191,-48.838 74.521,-79.705 101.254,-97.5" style="fill:none;fill-rule:nonzero;stroke:#fff;stroke-width:4.17px;stroke-linecap:round;"/></g></g><g opacity="0.5"><clipPath id="_clip3"><rect x="359.791" y="580.572" width="89.708" height="118.229" clip-rule="nonzero"/></clipPath><g clip-path="url(#_clip3)"><path d="M447.421,696.717c-4.896,-15.65 -13.825,-37.9 -30.55,-61.108c-19.117,-26.521 -40.479,-43.292 -54.996,-52.954" style="fill:none;fill-rule:nonzero;stroke:#fff;stroke-width:4.17px;stroke-linecap:round;"/></g></g><g opacity="0.7"><rect x="950.695" y="262.16" width="14.462" height="14.458" style="fill:#e0dace;"/></g><g opacity="0.7"><rect x="950.695" y="284.318" width="14.462" height="14.458" style="fill:#e0dace;"/></g><g opacity="0.7"><rect x="950.695" y="306.476" width="14.462" height="14.458" style="fill:#e0dace;"/></g><g opacity="0.7"><rect x="950.695" y="328.635" width="14.462" height="14.458" style="fill:#e0dace;"/></g><g opacity="0.7"><rect x="950.695" y="350.793" width="14.462" height="14.458" style="fill:#e0dace;"/></g><g opacity="0.7"><rect x="950.695" y="372.951" width="14.462" height="14.458" style="fill:#e0dace;"/></g><g opacity="0.7"><rect x="950.695" y="395.11" width="14.462" height="14.458" style="fill:#e0dace;"/></g><g opacity="0.7"><rect x="950.695" y="417.268" width="14.462" height="14.458" style="fill:#e0dace;"/></g><g opacity="0.7"><rect x="950.695" y="439.426" width="14.462" height="14.458" style="fill:#e0dace;"/></g><g opacity="0.7"><rect x="950.695" y="461.585" width="14.462" height="14.458" style="fill:#e0dace;"/></g><g opacity="0.7"><rect x="950.695" y="483.743" width="14.462" height="14.458" style="fill:#e0dace;"/></g><g opacity="0.7"><rect x="950.695" y="506.285" width="14.462" height="14.458" style="fill:#e0dace;"/></g><g opacity="0.7"><rect x="950.695" y="528.443" width="14.462" height="14.458" style="fill:#e0dace;"/></g><g opacity="0.7"><rect x="950.695" y="550.601" width="14.462" height="14.458" style="fill:#e0dace;"/></g><g opacity="0.7"><rect x="950.695" y="572.76" width="14.462" height="14.458" style="fill:#e0dace;"/></g><g opacity="0.7"><rect x="950.695" y="594.918" width="14.462" height="14.458" style="fill:#e0dace;"/></g><g opacity="0.7"><rect x="950.695" y="617.076" width="14.462" height="14.458" style="fill:#e0dace;"/></g><g opacity="0.7"><rect x="950.695" y="639.426" width="14.462" height="14.458" style="fill:#e0dace;"/></g><g opacity="0.7"><rect x="950.695" y="661.585" width="14.462" height="14.458" style="fill:#e0dace;"/></g><g opacity="0.7"><rect x="950.695" y="683.743" width="14.462" height="14.458" style="fill:#e0dace;"/></g><rect x="1010.5" y="261.855" width="116.375" height="14.458" style="fill:#3f68ea;"/><rect x="1133.78" y="261.855" width="116.375" height="14.458" style="fill:#b28a1b;"/><rect x="1010.5" y="395.61" width="91.058" height="14.458" style="fill:#3f68ea;"/><rect x="1108.94" y="395.61" width="134.183" height="14.458" style="fill:#b28a1b;"/><g opacity="0.5"><rect x="1030.67" y="284.568" width="156.667" height="14.454" style="fill:#9ca8c8;"/></g><g opacity="0.5"><rect x="1030.67" y="350.193" width="156.667" height="14.454" style="fill:#9ca8c8;"/></g><g opacity="0.5"><rect x="1194.42" y="350.193" width="156.667" height="14.454" style="fill:#9ca8c8;"/></g><g opacity="0.5"><rect x="1030.67" y="417.38" width="156.667" height="14.454" style="fill:#9ca8c8;"/></g><g opacity="0.5"><rect x="1030.65" y="462.064" width="119.346" height="14.458" style="fill:#9ca8c8;"/></g><g opacity="0.5"><rect x="1030.67" y="484.151" width="119.333" height="14.454" style="fill:#9ca8c8;"/></g><g opacity="0.5"><rect x="1194.42" y="417.38" width="156.667" height="14.454" style="fill:#9ca8c8;"/></g><g opacity="0.5"><rect x="1030.65" y="306.647" width="85.283" height="14.458" style="fill:#9ca8c8;"/></g><g opacity="0.5"><rect x="1122.84" y="306.647" width="85.283" height="14.458" style="fill:#9ca8c8;"/></g><g opacity="0.5"><rect x="1030.97" y="439.46" width="54.654" height="14.458" style="fill:#9ca8c8;"/></g><g opacity="0.5"><rect x="1214.3" y="439.46" width="54.654" height="14.458" style="fill:#9ca8c8;"/></g><g opacity="0.5"><rect x="1093.12" y="439.46" width="115.312" height="14.458" style="fill:#9ca8c8;"/></g><g opacity="0.5"><rect x="1030.67" y="328.11" width="182.458" height="14.454" style="fill:#9ca8c8;"/></g><g opacity="0.5"><rect x="1220.97" y="328.105" width="85.283" height="14.458" style="fill:#9ca8c8;"/></g><path d="M948.438,211.822c-0,6.47 -5.25,11.72 -11.721,11.72c-6.471,0 -11.717,-5.25 -11.717,-11.72c0,-6.475 5.246,-11.721 11.717,-11.721c6.471,-0 11.721,5.246 11.721,11.721" style="fill:#ef6262;fill-rule:nonzero;"/><path d="M979.073,211.04c0,6.471 -5.246,11.721 -11.721,11.721c-6.466,0 -11.716,-5.25 -11.716,-11.721c-0,-6.475 5.25,-11.72 11.716,-11.72c6.475,-0 11.721,5.245 11.721,11.72" style="fill:#e8c552;fill-rule:nonzero;"/><path d="M1009.71,209.92c0,6.47 -5.25,11.72 -11.721,11.72c-6.47,0 -11.716,-5.25 -11.716,-11.72c-0,-6.471 5.246,-11.721 11.716,-11.721c6.471,-0 11.721,5.25 11.721,11.721" style="fill:#11a831;fill-rule:nonzero;"/><g opacity="0.7"><clipPath id="_clip4"><path d="M988.874,698.826l4.167,0l0,-437.812l-4.167,-0l0,437.812Z" clip-rule="nonzero"/></clipPath><g clip-path="url(#_clip4)"><path d="M990.939,261.014l-0,437.813" style="fill:none;fill-rule:nonzero;stroke:#e0dace;stroke-width:4.17px;"/></g></g><path d="M1896.56,729.764l-457.5,0l-0,-551.25l450.154,0c4.058,0 7.346,3.288 7.346,7.342l-0,543.908Z" style="fill:#eaeaea;fill-rule:nonzero;"/><rect x="1791.56" y="198.785" width="83.125" height="14.458" style="fill:#8e8e8e;"/><rect x="1699.89" y="198.785" width="83.125" height="14.458" style="fill:#8e8e8e;"/><path d="M1587.4,600.858l-115.688,-0c-3.592,-0 -6.504,-2.913 -6.504,-6.508l-0,-106.405c-0,-3.591 2.912,-6.504 6.504,-6.504l115.688,0c3.591,0 6.508,2.913 6.508,6.504l-0,106.405c-0,3.595 -2.917,6.508 -6.508,6.508" style="fill:#d6d6d6;fill-rule:nonzero;"/><path d="M1727.04,600.858l-115.688,-0c-3.591,-0 -6.504,-2.913 -6.504,-6.508l0,-106.405c0,-3.591 2.913,-6.504 6.504,-6.504l115.688,0c3.592,0 6.508,2.913 6.508,6.504l0,106.405c0,3.595 -2.916,6.508 -6.508,6.508" style="fill:#d6d6d6;fill-rule:nonzero;"/><path d="M1866.67,600.858l-115.687,-0c-3.592,-0 -6.505,-2.913 -6.505,-6.508l0,-106.405c0,-3.591 2.913,-6.504 6.505,-6.504l115.687,0c3.592,0 6.508,2.913 6.508,6.504l0,106.405c0,3.595 -2.916,6.508 -6.508,6.508" style="fill:#d6d6d6;fill-rule:nonzero;"/><rect x="1439.06" y="232.368" width="457.5" height="219.842" style="fill:#0b132d;"/><rect x="1462.45" y="198.785" width="83.125" height="14.458" style="fill:#ef6262;"/><rect x="1499.89" y="290.66" width="151.508" height="14.458" style="fill:#fff;"/><rect x="1499.89" y="314.564" width="99.479" height="14.458" style="fill:#fff;"/><rect x="1499.89" y="368.472" width="59.638" height="14.458" style="fill:#ef6262;"/><path d="M566.874,763.515c-4.387,-21.425 -3.037,-41.496 2.813,-43.542c7.308,-2.558 20.371,21.117 21.562,22.917c4.063,1.875 8.125,3.75 12.188,5.625c10.283,-1.33 23.017,-2.08 37.5,-0.938c11.037,0.867 24.971,2.654 33.229,4.688c20.946,-23.338 30.217,-29.171 36.146,-25.834c3.383,1.904 4.321,3.988 2.812,14.584c-1.129,8.937 -2.054,22.375 0,38.437c1.967,15.388 5.03,20.346 7.5,36.563c2.38,15.595 4.675,30.666 0.938,44.062c-6.063,21.713 -26.767,34.633 -40.638,41.163c-5.387,2.537 -8.662,8.116 -8.12,14.045l0.008,0.105c9.812,-1.775 24.387,-3.13 38.437,0.937c3.875,1.121 7.342,2.546 10.313,5.625c5.55,5.75 6.642,14.188 5.625,19.688c-2.096,11.362 -15.042,20.933 -31.875,21.562c-147.188,0.625 -294.375,1.25 -441.563,1.875c-2.462,0.058 -7.512,0.508 -9.375,3.75c-0.966,1.688 -1.687,5.192 5.625,15.938c1.675,2.458 10.18,14.958 19.688,21.562c22.387,15.542 61.35,6.05 109.687,12.188c29.813,3.783 61.075,7.754 68.438,27.187c7.533,19.888 -10.7,54.021 -32.813,56.25c-1.512,0.15 -13.712,2.129 -17.812,-4.687c-0.754,-1.263 -1.125,-2.634 -1.233,-4.017c-0.43,-5.513 3.491,-10.513 8.833,-11.963c11.496,-3.12 22.412,-12.841 21.462,-22.458c-0.895,-9.05 -20.725,-14.208 -30.937,-15.937c-20.625,-3.75 -37.5,-5.155 -57.188,-5.625c-25.1,-0.6 -41.9,5.862 -65.625,-2.813c-10.591,-3.875 -17.783,-9.296 -21.562,-12.187c-0,-0 -22.963,-17.588 -33.75,-49.688c-16.029,-47.712 23.537,-118.65 68.437,-161.25c18.955,-17.979 70.63,-67.012 148.125,-63.75c56.371,2.371 95.867,22.796 110.625,34.792l12.363,4.837c4.475,1.75 9.333,-1.446 9.521,-6.241c0.2,-5.388 0.408,-9.596 0.616,-17.45" style="fill:#e8c552;fill-rule:nonzero;"/><path d="M616.561,825.388c1.158,11.562 11.575,19.65 22.033,18.283c9.217,-1.208 16.692,-9.541 16.875,-19.687" style="fill:none;fill-rule:nonzero;stroke:#1c1b1b;stroke-width:4.17px;stroke-linecap:round;stroke-linejoin:round;"/><path d="M679.842,830.346c0.88,9.921 8.788,16.862 16.725,15.691c6.996,-1.037 12.667,-8.191 12.809,-16.9" style="fill:none;fill-rule:nonzero;stroke:#1c1b1b;stroke-width:4.17px;stroke-linecap:round;stroke-linejoin:round;"/><path d="M717.342,842.264c3.634,-0.758 8.634,-1.396 14.53,-0.937c7.804,0.604 13.929,2.879 17.816,4.687" style="fill:none;fill-rule:nonzero;stroke:#1c1b1b;stroke-width:4.17px;stroke-linecap:round;stroke-linejoin:round;"/><path d="M717.114,858.066c3.7,-0.3 8.742,-0.308 14.534,0.884c7.666,1.579 13.458,4.595 17.087,6.879" style="fill:none;fill-rule:nonzero;stroke:#1c1b1b;stroke-width:4.17px;stroke-linecap:round;stroke-linejoin:round;"/><path d="M712.297,871.933c3.7,0.309 8.671,1.121 14.196,3.238c7.308,2.804 12.533,6.725 15.746,9.566" style="fill:none;fill-rule:nonzero;stroke:#1c1b1b;stroke-width:4.17px;stroke-linecap:round;stroke-linejoin:round;"/><rect x="1520.62" y="1931.63" width="84.375" height="80.629" style="fill:#e0c777;"/><rect x="1918.12" y="1924.14" width="84.375" height="80.625" style="fill:#e0c777;"/><path d="M2065.62,102.888l-1.25,92.5c0,0 -1.254,38.75 -26.254,56.25c0,0 -17.496,10 2.504,22.5c0,0 16.246,12.5 20,27.5l1.25,66.25c0,0 11.25,43.75 66.25,21.25c0,0 26.25,-6.25 36.25,11.25l6.25,46.25l147.5,-21.25l-10,-83.75l-7.504,-228.75l-234.996,-10Z" style="fill:#e0c777;fill-rule:nonzero;"/><path d="M2070,232.889l-26.875,0c-4.141,0 -7.5,-3.358 -7.5,-7.5l0,-58.125c0,-4.142 3.359,-7.5 7.5,-7.5l26.875,0c4.142,0 7.5,3.358 7.5,7.5l0,58.125c0,4.142 -3.358,7.5 -7.5,7.5Z" style="fill:none;fill-rule:nonzero;stroke:#ef6262;stroke-width:12.5px;"/><rect x="2080" y="191.014" width="126.25" height="13.75" style="fill:#ef6262;"/><path d="M2341.87,77.888c-33.62,-49.025 -85.162,-64.396 -105,-70c-71.479,-20.196 -142.829,0.879 -188.75,35c-23.479,17.446 -27.745,50.188 -17.5,64.375c16.25,22.5 23.438,22.5 30,18.75c40.867,-23.35 50.78,-0.954 66.563,8.438c17.558,10.45 18.337,25.141 22.187,55.937c3.584,28.679 1.25,63.538 1.25,63.75l7.463,0c3.896,0 7.004,-3.041 7.312,-6.929c1.196,-15.112 11.596,-35.983 18.35,-38.696c8.305,-3.337 25.338,-1.2 30,5c17.005,22.613 -28.5,90.067 -40.495,106.984c-1.634,2.304 -1.825,5.35 -0.421,7.804c1.562,2.737 3.708,6.079 6.541,9.587c24.255,30.05 52.342,36.242 89.375,25c0,0 26.088,-2.516 41.25,-14.375c50.763,-39.696 56.792,-142.333 55.967,-193.125c-0.446,-27.396 -8.312,-54.283 -23.712,-76.946c-0.125,-0.183 -0.255,-0.37 -0.38,-0.554" style="fill:#231c09;fill-rule:nonzero;"/><path d="M2062.5,476.639l67.5,-28.125l196.875,-26.25c30.984,-4.6 41.9,10.604 63.009,33.746c42.687,46.796 98.029,144.704 66.366,322.504l-150,495l-258.754,-67.5l15.004,-729.375Z" style="fill:#2d7696;fill-rule:nonzero;"/><path d="M1249.22,942.575l284.996,0c6.992,0 12.662,-5.666 12.662,-12.654l0,-61.875c0,-6.991 -5.67,-12.658 -12.662,-12.658l-223.121,-0c-41.162,-0 -74.533,33.367 -74.533,74.533c-0,6.988 5.666,12.654 12.658,12.654" style="fill:#e0c777;fill-rule:nonzero;"/><path d="M2143.12,1179.76l-11.25,219.375l-406.875,9.375c-0,0 -61.875,-3.75 -60,90c-0,0 -16.875,371.254 -31.871,438.754l-138.754,1.871c-0,0 -56.25,-393.75 -22.5,-575.621c-0,0 16.079,-84.775 86.95,-142.054c16.462,-13.308 35.716,-22.696 56.258,-27.817c72.475,-18.054 292.125,-62.904 528.042,-13.883" style="fill:#050505;fill-rule:nonzero;"/><path d="M1845,1444.14c0,-0 7.5,433.125 60,493.129l114.375,3.746c0,-0 60,-410.625 46.875,-506.25l-221.25,9.375Z" style="fill:#050505;fill-rule:nonzero;"/><path d="M1496.25,2008.93c-0,-0 73.125,-40.313 121.875,9.375l2.812,79.687l-305.625,0.942c0,-0 -7.5,-35.625 37.5,-37.5c0,-0 83.442,0.933 143.438,-52.504" style="fill:#2222a0;fill-rule:nonzero;"/><path d="M1906.87,2008.93c-0,-0 73.129,-40.313 121.875,9.375l2.816,79.687l-305.629,0.942c0,-0 -7.5,-35.625 37.5,-37.5c0,-0 83.442,0.933 143.438,-52.504" style="fill:#2222a0;fill-rule:nonzero;"/><path d="M2154.37,469.138c-41.795,-28.158 -111.241,-8.025 -142.179,37.887l-193.625,309.205c-0.012,0.012 -0.021,0.025 -0.029,0.041c-1.7,2.525 -4.421,4.184 -7.467,4.338l-322.57,16.225c-54.359,1.3 -90.121,24.321 -89.192,63.283c0.933,38.963 13.504,59.829 67.867,58.529l382.487,1.284c22.996,-0.55 43.992,-6.721 60.521,-16.588c10.375,-4.658 19.158,-10.887 24.646,-19.029l228.712,-315.313c30.938,-45.912 32.621,-111.7 -9.171,-139.862" style="fill:#1f667f;fill-rule:nonzero;"/><path d="M1878.82,1447.89l-0,37.5c-0,24.854 20.15,45 45.004,45l184.683,-0l0,453.75l91.88,-0l-0,-453.75l184.683,-0c24.854,-0 45.004,-20.146 45.004,-45l0,-37.5l-551.254,-0Z" style="fill:#262626;fill-rule:nonzero;"/><path d="M2422.63,1461.68c13.867,0.688 214.104,6.617 241.525,-223.166c0.146,-1.238 0.233,-2.505 0.267,-3.755l11.2,-414.375l0.862,-85.187c0.217,-21.233 -16.942,-38.563 -38.175,-38.563l-180.937,0c-1.313,0 -2.592,0.063 -3.896,0.2c-19.625,2.067 -168.738,23.334 -227.4,195.959c-0.296,0.879 -0.567,1.766 -0.804,2.662c-6.955,25.946 -114.896,426.338 -164.571,459.754c-2.167,1.459 -7.609,8.33 -9.454,10.18l-7.342,5.462c-5.396,5.4 -12.292,9.054 -19.788,10.496l-11.779,2.792c-2.312,0.441 -10.404,1.25 -12.762,1.262l-227.821,1.058c-20.771,0.1 -37.654,16.788 -37.996,37.555c-0.35,21.354 16.888,38.837 38.242,38.8l648.808,-1.18c0.613,0 1.204,0.013 1.821,0.046" style="fill:#9ca8c8;fill-rule:nonzero;"/><path d="M1885.59,2126.95c-0,-55.4 50.783,-100.312 113.437,-100.312c62.65,-0 113.434,44.912 113.434,100.312c-0,1.434 -0.05,2.855 -0.121,4.271l84.621,0c-0.067,-1.416 -0.125,-2.837 -0.125,-4.271c-0,-55.4 50.791,-100.312 113.441,-100.312c62.65,-0 113.434,44.912 113.434,100.312c-0,1.434 -0.05,2.855 -0.121,4.271l46.792,0c-0,-84.912 -68.838,-153.75 -153.755,-153.75l-324.37,0c-84.917,0 -153.755,68.838 -153.755,153.75l47.209,0c-0.067,-1.416 -0.121,-2.837 -0.121,-4.271" style="fill:#161616;fill-rule:nonzero;"/></svg>