<svg xmlns="http://www.w3.org/2000/svg" viewBox="0 0 672.04 511.49"><defs><style>.cls-1{opacity:0.3;}.cls-14,.cls-2,.cls-20,.cls-25,.cls-27{fill:none;}.cls-2{stroke:#9ca8c8;stroke-width:2px;}.cls-14,.cls-2,.cls-20,.cls-27{stroke-miterlimit:10;}.cls-18,.cls-3{fill:#9ca8c8;}.cls-4{fill:#8e8e8e;}.cls-5{fill:#5b5b5b;}.cls-6{fill:#727272;}.cls-7{fill:#adadad;}.cls-8{fill:#2b2a2a;}.cls-9{fill:#262323;}.cls-10{fill:#1ac48b;}.cls-11{fill:#11a831;}.cls-12{fill:#a0743a;}.cls-13{fill:#ef6262;}.cls-14{stroke:#fff;}.cls-14,.cls-25{stroke-linecap:round;}.cls-14,.cls-18{opacity:0.5;}.cls-15{fill:#e0dace;}.cls-15,.cls-20{opacity:0.7;}.cls-16{fill:#3f68ea;}.cls-17{fill:#b28a1b;}.cls-19{fill:#e8c552;}.cls-20{stroke:#e0dace;}.cls-21{fill:#eaeaea;}.cls-22{fill:#d6d6d6;}.cls-23{fill:#0b132d;}.cls-24{fill:#fff;}.cls-25{stroke:#1c1b1b;stroke-linejoin:round;}.cls-26{fill:#e0c777;}.cls-27{stroke:#ef6262;stroke-width:3px;}.cls-28{fill:#231c09;}.cls-29{fill:#2d7696;}.cls-30{fill:#050505;}.cls-31{fill:#2222a0;}.cls-32{fill:#1f667f;}.cls-33{fill:#262626;}.cls-34{fill:#161616;}</style></defs><g id="Layer_2" data-name="Layer 2"><g id="CHAIR"><g class="cls-1"><polyline class="cls-2" points="0.77 17.69 27.1 49.69 53.43 17.69 79.76 49.69 106.09 17.69 132.43 49.69 158.76 17.69 185.09 49.69 211.43 17.69 237.77 49.69"/><polyline class="cls-2" points="0.77 35.69 27.1 67.69 53.43 35.69 79.76 67.69 106.09 35.69 132.43 67.69 158.76 35.69 185.09 67.69 211.43 35.69 237.77 67.69"/><polyline class="cls-2" points="0.77 53.69 27.1 85.69 53.43 53.69 79.76 85.69 106.09 53.69 132.43 85.69 158.76 53.69 185.09 85.69 211.43 53.69 237.77 85.69"/></g><g class="cls-1"><circle class="cls-3" cx="556.78" cy="330.05" r="9.5"/><circle class="cls-3" cx="592.03" cy="330.05" r="9.5"/><circle class="cls-3" cx="627.28" cy="330.05" r="9.5"/><circle class="cls-3" cx="662.54" cy="330.05" r="9.5"/><circle class="cls-3" cx="556.78" cy="363.46" r="9.5"/><circle class="cls-3" cx="592.03" cy="363.46" r="9.5"/><circle class="cls-3" cx="627.28" cy="363.46" r="9.5"/><circle class="cls-3" cx="662.54" cy="363.46" r="9.5"/><circle class="cls-3" cx="556.78" cy="396.88" r="9.5"/><circle class="cls-3" cx="592.03" cy="396.88" r="9.5"/><circle class="cls-3" cx="627.28" cy="396.88" r="9.5"/><circle class="cls-3" cx="662.54" cy="396.88" r="9.5"/><circle class="cls-3" cx="556.78" cy="430.29" r="9.5"/><circle class="cls-3" cx="592.03" cy="430.29" r="9.5"/><circle class="cls-3" cx="627.28" cy="430.29" r="9.5"/><circle class="cls-3" cx="662.54" cy="430.29" r="9.5"/></g><rect class="cls-4" x="308.35" y="189.09" width="36.9" height="36"/><polygon class="cls-5" points="454.22 243.09 471.77 243.09 429.92 503.19 411.47 503.19 454.22 243.09"/><polygon class="cls-5" points="573.47 243.09 555.92 243.09 597.77 503.19 616.22 503.19 573.47 243.09"/><polygon class="cls-6" points="65.87 245.34 26.72 500.04 43.37 500.04 84.77 247.14 65.87 245.34"/><polygon class="cls-6" points="170.72 244.44 188.72 244.89 230.12 500.49 212.12 500.49 170.72 244.44"/><rect class="cls-7" x="203.08" y="37.89" width="247.5" height="153.9" rx="8.05"/><rect class="cls-8" x="208.03" y="42.99" width="237.6" height="132.15" rx="1.4"/><rect class="cls-6" x="52.37" y="230.49" width="535.5" height="18" rx="5.17"/><rect class="cls-5" x="52.37" y="230.49" width="153.45" height="18" rx="5.17"/><rect class="cls-9" x="258.02" y="224.19" width="139.35" height="9.6"/><path class="cls-10" d="M105.17,176.49c-.7-3.33-5.52-28.19,11.7-49.8,18-22.57,44.88-22.55,48-22.5a73.67,73.67,0,0,1-53.4,74.1Z"/><path class="cls-11" d="M108.78,179.18c.48-2.24,3.72-18.94-7.86-33.46-12.1-15.17-30.16-15.16-32.26-15.12a49.5,49.5,0,0,0,35.89,49.79Z"/><rect class="cls-12" x="71.87" y="174.09" width="72" height="18.3" rx="2.4"/><path class="cls-13" d="M232.07,213.54c0-6.32-5-11.59-11.55-12.79v-6.56a4.5,4.5,0,0,0-4.5-4.5h-26.4a4.51,4.51,0,0,0-4.5,4.5v31.95a4.5,4.5,0,0,0,4.5,4.5H216a4.48,4.48,0,0,0,4.48-4.3C227.1,225.15,232.07,219.87,232.07,213.54ZM220.52,222v-16.9a8.62,8.62,0,0,1,0,16.9Z"/><path class="cls-14" d="M116.12,165.24a94.29,94.29,0,0,1,37.8-50.4"/><path class="cls-14" d="M98.1,167.21a51.2,51.2,0,0,0-20.53-27.37"/><rect class="cls-15" x="218.89" y="62.92" width="3.47" height="3.47"/><rect class="cls-15" x="218.89" y="68.24" width="3.47" height="3.47"/><rect class="cls-15" x="218.89" y="73.55" width="3.47" height="3.47"/><rect class="cls-15" x="218.89" y="78.87" width="3.47" height="3.47"/><rect class="cls-15" x="218.89" y="84.19" width="3.47" height="3.47"/><rect class="cls-15" x="218.89" y="89.51" width="3.47" height="3.47"/><rect class="cls-15" x="218.89" y="94.83" width="3.47" height="3.47"/><rect class="cls-15" x="218.89" y="100.14" width="3.47" height="3.47"/><rect class="cls-15" x="218.89" y="105.46" width="3.47" height="3.47"/><rect class="cls-15" x="218.89" y="110.78" width="3.47" height="3.47"/><rect class="cls-15" x="218.89" y="116.1" width="3.47" height="3.47"/><rect class="cls-15" x="218.89" y="121.51" width="3.47" height="3.47"/><rect class="cls-15" x="218.89" y="126.83" width="3.47" height="3.47"/><rect class="cls-15" x="218.89" y="132.14" width="3.47" height="3.47"/><rect class="cls-15" x="218.89" y="137.46" width="3.47" height="3.47"/><rect class="cls-15" x="218.89" y="142.78" width="3.47" height="3.47"/><rect class="cls-15" x="218.89" y="148.1" width="3.47" height="3.47"/><rect class="cls-15" x="218.89" y="153.46" width="3.47" height="3.47"/><rect class="cls-15" x="218.89" y="158.78" width="3.47" height="3.47"/><rect class="cls-15" x="218.89" y="164.1" width="3.47" height="3.47"/><rect class="cls-16" x="233.24" y="62.85" width="27.93" height="3.47"/><rect class="cls-17" x="262.83" y="62.85" width="27.93" height="3.47"/><rect class="cls-16" x="233.24" y="94.95" width="21.85" height="3.47"/><rect class="cls-17" x="256.87" y="94.95" width="32.2" height="3.47"/><rect class="cls-18" x="238.08" y="68.3" width="37.6" height="3.47"/><rect class="cls-18" x="238.08" y="84.05" width="37.6" height="3.47"/><rect class="cls-18" x="277.38" y="84.05" width="37.6" height="3.47"/><rect class="cls-18" x="238.08" y="100.17" width="37.6" height="3.47"/><rect class="cls-18" x="238.08" y="110.9" width="28.64" height="3.47"/><rect class="cls-18" x="238.08" y="116.2" width="28.64" height="3.47"/><rect class="cls-18" x="277.38" y="100.17" width="37.6" height="3.47"/><rect class="cls-18" x="238.08" y="73.6" width="20.47" height="3.47"/><rect class="cls-18" x="260.2" y="73.6" width="20.47" height="3.47"/><rect class="cls-18" x="238.15" y="105.47" width="13.12" height="3.47"/><rect class="cls-18" x="282.15" y="105.47" width="13.12" height="3.47"/><rect class="cls-18" x="253.07" y="105.47" width="27.68" height="3.47"/><rect class="cls-18" x="238.08" y="78.75" width="43.79" height="3.47"/><rect class="cls-18" x="283.75" y="78.75" width="20.47" height="3.47"/><circle class="cls-13" cx="215.53" cy="50.84" r="2.81"/><circle class="cls-19" cx="222.89" cy="50.65" r="2.81"/><circle class="cls-11" cx="230.24" cy="50.38" r="2.81"/><line class="cls-20" x1="228.55" y1="62.64" x2="228.55" y2="167.72"/><path class="cls-21" d="M336.1,42.84h108a1.76,1.76,0,0,1,1.76,1.76V175.14a0,0,0,0,1,0,0H336.1a0,0,0,0,1,0,0V42.84A0,0,0,0,1,336.1,42.84Z"/><rect class="cls-4" x="420.7" y="47.71" width="19.95" height="3.47"/><rect class="cls-4" x="398.7" y="47.71" width="19.95" height="3.47"/><rect class="cls-22" x="342.37" y="115.55" width="30.89" height="28.66" rx="1.56"/><rect class="cls-22" x="375.88" y="115.55" width="30.89" height="28.66" rx="1.56"/><rect class="cls-22" x="409.4" y="115.55" width="30.89" height="28.66" rx="1.56"/><rect class="cls-23" x="336.1" y="55.77" width="109.8" height="52.76"/><rect class="cls-13" x="341.71" y="47.71" width="19.95" height="3.47"/><rect class="cls-24" x="350.7" y="69.76" width="36.36" height="3.47"/><rect class="cls-24" x="350.7" y="75.5" width="23.88" height="3.47"/><rect class="cls-13" x="350.7" y="88.43" width="14.31" height="3.47"/><path class="cls-19" d="M126.77,183.24c-1-5.14-.73-10,.68-10.45,1.75-.61,4.89,5.07,5.17,5.5l2.93,1.35a43.08,43.08,0,0,1,9-.22,59.74,59.74,0,0,1,8,1.12c5-5.6,7.25-7,8.68-6.2.81.46,1,1,.67,3.5a36.79,36.79,0,0,0,0,9.23c.47,3.69,1.21,4.88,1.8,8.77s1.13,7.36.23,10.58c-1.46,5.21-6.43,8.31-9.76,9.88a3.39,3.39,0,0,0-1.94,3.37v0a20.74,20.74,0,0,1,9.22.23,5.27,5.27,0,0,1,2.48,1.35,5.63,5.63,0,0,1,1.35,4.72c-.51,2.73-3.61,5-7.65,5.18l-106,.45c-.59,0-1.8.12-2.25.9-.23.4-.4,1.24,1.35,3.82a21.83,21.83,0,0,0,4.73,5.18c5.37,3.73,14.72,1.45,26.32,2.92,7.16.91,14.66,1.86,16.43,6.53s-2.57,13-7.88,13.5c-.36,0-3.29.51-4.27-1.13a2.24,2.24,0,0,1-.3-1,2.83,2.83,0,0,1,2.12-2.87c2.76-.75,5.38-3.08,5.15-5.39s-5-3.41-7.42-3.83a84.18,84.18,0,0,0-13.73-1.35c-6-.14-10.05,1.41-15.75-.67A18.74,18.74,0,0,1,51,245.34a27,27,0,0,1-8.1-11.92C39,222,48.5,204.94,59.27,194.72c4.55-4.32,16.95-16.08,35.55-15.3,13.53.57,23,5.47,26.55,8.35l3,1.16a1.67,1.67,0,0,0,2.28-1.5C126.67,186.14,126.72,185.13,126.77,183.24Z"/><path class="cls-25" d="M138.7,198.09a4.67,4.67,0,0,0,9.33-.33"/><path class="cls-25" d="M153.88,199.28c.22,2.38,2.11,4.05,4,3.77A4,4,0,0,0,161,199"/><path class="cls-25" d="M162.88,202.14a12.47,12.47,0,0,1,7.77.9"/><path class="cls-25" d="M162.83,205.94a11.92,11.92,0,0,1,3.49.21,12.37,12.37,0,0,1,4.1,1.65"/><path class="cls-25" d="M161.67,209.26a12.61,12.61,0,0,1,3.41.78,12.25,12.25,0,0,1,3.78,2.3"/><rect class="cls-26" x="355.67" y="463.59" width="20.25" height="19.35"/><rect class="cls-26" x="451.07" y="461.79" width="20.25" height="19.35"/><path class="cls-26" d="M486.47,24.69l-.3,22.2s-.3,9.3-6.3,13.5c0,0-4.2,2.4.6,5.4,0,0,3.9,3,4.8,6.6l.3,15.9s2.7,10.5,15.9,5.1c0,0,6.3-1.5,8.7,2.7l1.5,11.1,35.4-5.1L544.67,82l-1.8-54.9Z"/><rect class="cls-27" x="479.27" y="38.34" width="10.05" height="17.55" rx="1.8"/><rect class="cls-13" x="489.92" y="45.84" width="30.3" height="3.3"/><path class="cls-28" d="M552.77,18.69c-8.07-11.76-20.44-15.45-25.2-16.8-17.15-4.84-34.28.21-45.3,8.4-5.63,4.19-6.66,12.05-4.2,15.45,3.9,5.4,5.63,5.4,7.2,4.5,9.81-5.6,12.19-.23,16,2,4.21,2.51,4.4,6,5.32,13.42a95.59,95.59,0,0,1,.3,15.3h1.79a1.78,1.78,0,0,0,1.76-1.66c.28-3.63,2.78-8.64,4.4-9.29,2-.8,6.08-.28,7.2,1.2,4.08,5.43-6.84,21.62-9.72,25.68a1.74,1.74,0,0,0-.1,1.87,17.57,17.57,0,0,0,1.57,2.3c5.82,7.22,12.56,8.7,21.45,6,0,0,6.26-.6,9.9-3.45,12.19-9.52,13.63-34.16,13.43-46.35a33.65,33.65,0,0,0-5.69-18.46Z"/><path class="cls-29" d="M485.72,114.39l16.2-6.75,47.25-6.3c7.44-1.1,10.06,2.55,15.12,8.1,10.25,11.23,23.53,34.73,15.93,77.4l-36,118.8-62.1-16.2Z"/><path class="cls-26" d="M305.38,205.29h53.55a3,3,0,0,1,3,3v14.85a3,3,0,0,1-3,3h-68.4a3,3,0,0,1-3-3v0a17.89,17.89,0,0,1,17.89-17.89Z"/><path class="cls-30" d="M505.07,283.14l-2.7,52.65L404.72,338s-14.85-.9-14.4,21.6c0,0-4.05,89.1-7.65,105.3l-33.3.45s-13.5-94.5-5.4-138.15c0,0,3.86-20.34,20.87-34.09a34.76,34.76,0,0,1,13.5-6.67C395.74,282.14,448.45,271.38,505.07,283.14Z"/><path class="cls-30" d="M433.52,346.59s1.8,104,14.4,118.35l27.45.9s14.4-98.55,11.25-121.5Z"/><path class="cls-31" d="M349.82,482.14s17.55-9.67,29.25,2.25l.68,19.13-73.35.22s-1.8-8.55,9-9C315.4,494.74,335.42,495,349.82,482.14Z"/><path class="cls-31" d="M448.37,482.14s17.55-9.67,29.25,2.25l.68,19.13-73.35.22s-1.8-8.55,9-9C414,494.74,434,495,448.37,482.14Z"/><path class="cls-32" d="M507.77,112.59c-10-6.76-26.7-1.92-34.12,9.1l-46.47,74.2h0a2.32,2.32,0,0,1-1.79,1L348,200.84c-13,.31-21.63,5.84-21.4,15.19s3.24,14.36,16.29,14.05l91.79.3a29.86,29.86,0,0,0,14.53-4,13.71,13.71,0,0,0,5.91-4.56L510,146.16C517.4,135.14,517.8,119.35,507.77,112.59Z"/><path class="cls-33" d="M441.64,347.49v9a10.79,10.79,0,0,0,10.8,10.8h44.32v108.9h22V367.29h44.33a10.8,10.8,0,0,0,10.8-10.8v-9Z"/><path class="cls-3" d="M572.15,350.8c3.33.17,51.39,1.59,58-53.56a8.87,8.87,0,0,0,.06-.9l2.69-99.45.21-20.44a9.17,9.17,0,0,0-9.16-9.26H580.49c-.31,0-.62,0-.93.05-4.71.5-40.5,5.6-54.58,47-.07.21-.13.42-.19.64-1.67,6.23-27.58,102.32-39.5,110.34a30.91,30.91,0,0,0-2.27,2.44L481.26,329a9.16,9.16,0,0,1-4.75,2.51l-2.83.67c-.55.11-2.49.3-3.06.31l-54.68.25a9.16,9.16,0,0,0-9.11,9h0a9.16,9.16,0,0,0,9.17,9.32l155.72-.29Z"/><path class="cls-34" d="M443.26,510.47c0-13.3,12.19-24.08,27.23-24.08s27.22,10.78,27.22,24.08q0,.51,0,1H518c0-.34,0-.68,0-1,0-13.3,12.19-24.08,27.23-24.08s27.22,10.78,27.22,24.08q0,.51,0,1h11.23a36.9,36.9,0,0,0-36.9-36.9H468.86a36.9,36.9,0,0,0-36.9,36.9h11.33C443.28,511.15,443.26,510.81,443.26,510.47Z"/></g></g></svg>